#!OML:ASF I:\salsa\salsa 7_09\Patient 1\Session 1\dancermale.ASF
:FULLY-SPECIFIED
:DEGREES
1542
root 5.88702 17.4321 3.27557 -2.11958 104.484 -10.8551
lowerback -5.57648 8.76097 7.14988
upperback -0.147429 11.3887 -3.4696
thorax 5.04237 5.8906 -6.26094
lowerneck -10.079 0.664993 3.50071
upperneck 29.6459 2.05642 -1.35554
head 11.3089 1.68893 -0.740812
rclavicle 8.01972e-014 -3.16068e-014
rhumerus -64.3534 11.4105 -87.266
rradius 60.8646
rwrist 14.4158
rhand -22.0074 -4.46096
rfingers 7.12502
rthumb 4.40161 -34.3952
lclavicle 8.01972e-014 -3.16068e-014
lhumerus -56.2749 -30.793 64.1639
lradius 96.8296
lwrist -12.0115
lhand 0.732254 72.6526
lfingers 7.12502
lthumb 26.2916 619.149
rfemur -24.0216 -30.6552 24.0429
rtibia 63.1233
rfoot 0.300365 -4.92751
rtoes 17.4548
lfemur -21.1511 1.65265 -28.4772
ltibia 21.7901
lfoot 348.057 -3.53348
ltoes 11.8628
1543
root 5.82244 17.4223 3.208 -3.82121 103.47 -12.6144
lowerback -5.12334 8.84201 6.94387
upperback -0.274294 11.5465 -3.58521
thorax 4.66603 5.95593 -6.32861
lowerneck -9.9044 0.812685 3.43527
upperneck 29.4709 2.24516 -1.2702
head 11.2102 1.77043 -0.677829
rclavicle -2.39287e-014 -1.17283e-014
rhumerus -67.0965 11.1148 -89.7522
rradius 61.3246
rwrist 13.7274
rhand -20.3318 -4.33765
rfingers 7.12502
rthumb 6.01944 -34.2321
lclavicle -2.39287e-014 -1.17283e-014
lhumerus -58.9511 -32.7731 65.2078
lradius 95.708
lwrist -9.78893
lhand 1.88425 72.6821
lfingers 7.12502
lthumb 27.3939 619.289
rfemur -22.5669 -29.0072 23.7858
rtibia 60.0086
rfoot 1.14147 -5.25646
rtoes 24.263
lfemur -21.7404 2.16353 -28.9161
ltibia 22.3583
lfoot 348.366 -3.83843
ltoes 11.6651
1544
root 5.76337 17.4064 3.14577 -7.54429 102.774 -16.0056
lowerback -3.55584 8.73387 6.2262
upperback -0.971076 11.5426 -3.80614
thorax 2.96538 5.88692 -6.49548
lowerneck -9.08338 0.889072 3.40199
upperneck 29.6811 2.36576 -0.900061
head 11.1248 1.89931 -0.524587
rclavicle -1.27968e-015 1.27222e-014
rhumerus -70.7273 10.5543 -92.9438
rradius 61.6137
rwrist 13.0261
rhand -18.6478 -3.96813
rfingers 7.12502
rthumb 7.64507 -33.8099
lclavicle -1.27968e-015 1.27222e-014
lhumerus -63.0793 -35.2066 67.0085
lradius 95.0033
lwrist -7.63225
lhand 3.08451 72.9037
lfingers 7.12502
lthumb 28.5413 619.255
rfemur -20.2015 -27.2636 22.6866
rtibia 56.8915
rfoot -0.00497217 -4.54047
rtoes 23.7986
lfemur -21.7498 2.72497 -29.7791
ltibia 22.862
lfoot 348.612 -4.33555
ltoes 11.2229
1545
root 5.66771 17.3889 3.10823 -5.33633 101.839 -13.6362
lowerback -2.99207 8.73834 6.92419
upperback -0.897576 11.5479 -3.68622
thorax 2.84241 5.8935 -6.8234
lowerneck -8.99823 1.11013 3.81093
upperneck 29.0894 2.6016 -1.19749
head 10.8982 1.98386 -0.683774
rclavicle -1.24489e-014 1.47101e-014
rhumerus -72.3564 10.1117 -95.8881
rradius 61.5373
rwrist 12.3736
rhand -16.9745 -3.57538
rfingers 7.12502
rthumb 9.25998 -33.352
lclavicle -1.24489e-014 1.47101e-014
lhumerus -65.3563 -36.9332 68.3213
lradius 94.1111
lwrist -5.63931
lhand 4.31197 72.9964
lfingers 7.12502
lthumb 29.7135 619.365
rfemur -18.5859 -24.6889 23.5852
rtibia 54.3229
rfoot -1.56144 -4.01211
rtoes 17.7455
lfemur -22.649 3.33672 -29.0202
ltibia 23.9555
lfoot 348.986 -4.57108
ltoes 11.5954
1546
root 5.56286 17.3835 3.05287 -8.29678 101.094 -17.183
lowerback -3.13846 8.76416 6.53558
upperback -0.816305 11.5985 -3.93762
thorax 2.99475 5.92813 -6.83947
lowerneck -9.46859 1.29051 3.68787
upperneck 28.9096 2.80521 -1.21602
head 10.9286 2.0327 -0.644116
rclavicle -1.40976e-013 2.16675e-014
rhumerus -73.6354 9.51688 -98.6563
rradius 61.6602
rwrist 11.4396
rhand -14.7284 -3.25207
rfingers 7.12502
rthumb 11.4267 -32.9207
lclavicle -1.40976e-013 2.16675e-014
lhumerus -67.3421 -38.4492 69.9097
lradius 93.1297
lwrist -3.61919
lhand 5.39647 73.1087
lfingers 7.12502
lthumb 30.7481 619.442
rfemur -18.0571 -21.9852 23.2634
rtibia 52.2874
rfoot -3.56639 -3.67742
rtoes 12.8178
lfemur -24.2536 3.47312 -29.8299
ltibia 25.0671
lfoot 349.629 -4.5075
ltoes 12.163
